<svg xmlns="http://www.w3.org/2000/svg" width="164" height="163" viewBox="0 0 164 163">
    <defs>
        <linearGradient id="i2oqrb2lca" x1="76.975%" x2="-39.121%" y1="11.605%" y2="11.605%">
            <stop offset="0%" stop-color="#E6F1FB"/>
            <stop offset="100%" stop-color="#F4FAFF"/>
            <stop offset="100%" stop-color="#F4FAFF"/>
        </linearGradient>
    </defs>
    <g fill="none" fill-rule="evenodd">
        <g fill="url(#i2oqrb2lca)" fill-rule="nonzero" transform="translate(-1204 -666)">
            <g>
                <g>
                    <g>
                        <path d="M97.954 61.897c2.904-4.766 10.855-4.434 16.955.978 5.844 5.04 7.083 10.307 7.1 15.848 0 4.47-1.629 12.949-12.565 19.485-2.497 1.49-4.377 2.392-8.114 3.736 7.997 4.039 12.624 10.417 12.624 17.698 0 10.54-8.765 16.563-18.671 20.143 4.9 3.509 7.485 8.09 7.485 12.81 0 3.066-.384 6.284-5.332 10.033-.296.227-.658.372-1.06.372-.93 0-1.687-.757-1.687-1.688 0-.308.087-.593.233-.844 3.736-6.285-.472-10.248-7.16-13.054v9.76c0 3.213-2.607 5.82-5.82 5.82-3.212 0-5.82-2.607-5.82-5.82v-9.765c-6.961 2.921-10.54 6.297-7.165 13.054.14.25.227.535.227.843 0 .932-.757 1.688-1.688 1.688-.401 0-.768-.145-1.06-.378-5.115-3.58-5.453-7.188-5.453-10.098 0-5.069 2.637-9.381 7.532-12.774 2.77-1.915 4.272-2.456 13.41-6.53 15.849-7.071 20.371-8.223 20.371-13.584 0-2.211-3.154-5.517-9.173-7.565-1.897-.635-3.684-1.223-5.372-1.781v7.42l-11.64 5.191v-12.617c-1.694.559-3.487 1.152-5.39 1.787-6.019 2.042-9.173 5.354-9.173 7.565 0 3.021 1.42 4.784 6.024 7.112-3.999 1.962-7.421 4.412-10.163 7.234-4.36-3.468-7.496-8.206-7.496-14.346 0-8.619 6.484-15.975 17.38-19.677 7.799-2.59 13.736-4.533 18.345-6.035 10.756-3.515 13.917-4.568 16.37-5.814l.214-.11.212-.113.316-.171.21-.117c.28-.158.564-.324.861-.501 3.347-2.002 5.541-4.377 6.263-6.71-2.078-.431-4.25-1.374-6.298-2.852-5.89-4.26-8.498-11.256-5.832-15.633zm-48.805.986c6.17-5.428 14.2-5.75 17.135-.98 2.7 4.385.059 11.393-5.894 15.66-2.07 1.481-4.265 2.426-6.365 2.857.73 2.338 2.947 4.717 6.33 6.723 1.194.705 2.164 1.224 3.617 1.825l-.065.023c-4.935 1.662-9.281 3.959-12.929 6.752-7.723-6.075-8.988-13.072-8.988-16.99 0-5.545 1.26-10.821 7.159-15.87zm21.363-51.255c0-6.629 5.57-11.966 12.315-11.611C88.86.33 93.741 5.36 93.87 11.372c.093 4.407-2.283 8.262-5.84 10.314v9.762l17.594-17.85v.012c4.28-4.785 10.505-7.797 17.442-7.797h40.928s.005.168.007.483v.363c-.04 6.299-1.85 45.668-40.935 45.668-7.894 0-14.866-3.902-19.094-9.867-1.688-2.384-5.115-2.686-7.165-.605l-8.776 8.902v30.1L76.35 84.665V21.686c-3.486-2.012-5.839-5.756-5.839-10.058zm-29.358-6.09c6.975 0 13.235 3.024 17.539 7.82v-.005l11.82 11.968v19.38l-2.954-2.993c-2.061-2.084-5.508-1.786-7.205.607-4.25 5.993-11.262 9.908-19.2 9.908C2.478 52.223 0 5.54 0 5.54z" transform="translate(1067 52) translate(0 549) translate(137 65)"/>
                    </g>
                </g>
            </g>
        </g>
    </g>
</svg>
