<svg xmlns="http://www.w3.org/2000/svg" width="22" height="22" viewBox="0 0 22 22">
    <g fill="none" fill-rule="evenodd">
        <g fill="#FFF" fill-rule="nonzero">
            <g>
                <g>
                    <path d="M20.793 8.611l-1.723-.219c-.142-.437-.317-.859-.521-1.26l1.064-1.37c.43-.554.38-1.337-.112-1.814l-1.444-1.444c-.481-.497-1.264-.546-1.82-.116L14.87 3.452c-.4-.204-.822-.38-1.26-.521l-.22-1.721C13.307.52 12.721 0 12.027 0H9.974c-.694 0-1.28.52-1.362 1.207l-.22 1.724c-.438.142-.86.316-1.26.521l-1.37-1.064c-.553-.43-1.336-.38-1.814.112L2.504 3.943c-.496.482-.547 1.265-.116 1.82l1.064 1.37c-.205.4-.38.822-.521 1.26l-1.72.218C.52 8.694 0 9.28 0 9.973v2.054c0 .694.52 1.28 1.207 1.362l1.724.219c.142.437.317.859.521 1.26l-1.064 1.37c-.43.554-.38 1.337.112 1.814l1.444 1.444c.482.496 1.264.545 1.82.115l1.369-1.064c.4.205.822.38 1.26.522l.219 1.72C8.694 21.48 9.28 22 9.974 22h2.053c.694 0 1.28-.52 1.362-1.207l.22-1.724c.437-.142.858-.317 1.259-.521l1.37 1.064c.555.43 1.338.38 1.815-.112l1.443-1.444c.497-.482.548-1.264.117-1.819l-1.064-1.37c.205-.4.38-.822.521-1.26l1.72-.218c.69-.083 1.21-.668 1.21-1.362V9.973c0-.694-.519-1.28-1.207-1.362zM11 15.583c-2.527 0-4.583-2.056-4.583-4.583S8.473 6.417 11 6.417c2.528 0 4.584 2.056 4.584 4.583S13.528 15.583 11 15.583z" transform="translate(-45 -930) translate(32 332) translate(13 598)"/>
                </g>
            </g>
        </g>
    </g>
</svg>
