<svg xmlns="http://www.w3.org/2000/svg" width="48" height="48" viewBox="0 0 48 48">
    <g fill="none" fill-rule="evenodd">
        <g>
            <g transform="translate(-32 -332) translate(32 332)">
                <rect width="48" height="48" fill="#5C92FF" rx="11"/>
                <path fill="#FFF" d="M34.614 20.784l-9.643-8.6c-.275-.246-.686-.246-.96 0l-9.644 8.6c-.731.665-.297 1.946.663 1.946h1.074v10.348c0 1.06.777 1.922 1.782 1.922h3.794c.434 0 .754-.345.754-.813v-5.002c0-.468.32-.813.754-.813h2.651c.434 0 .754.345.754.813v4.977c0 .468.32.813.754.813h3.817c.982 0 1.782-.837 1.782-1.921V22.705h1.074c.914.025 1.349-1.256.594-1.921z"/>
            </g>
        </g>
    </g>
</svg>
