<svg xmlns="http://www.w3.org/2000/svg" width="155" height="90" viewBox="0 0 155 90">
    <defs>
        <linearGradient id="89u1oxzsoa" x1="76.975%" x2="-89.254%" y1="11.605%" y2="11.605%">
            <stop offset="0%" stop-color="#E6F1FB"/>
            <stop offset="100%" stop-color="#F4FAFF"/>
            <stop offset="100%" stop-color="#F4FAFF"/>
        </linearGradient>
    </defs>
    <g fill="none" fill-rule="evenodd">
        <g fill="url(#89u1oxzsoa)" fill-rule="nonzero" transform="translate(-1210 -889)">
            <g>
                <g>
                    <g>
                        <path d="M137.428 49c6.398 2.316 12.374 5.948 17.572 10.653-5.956 14.637-18.092 25.878-33.905 29.3-12.266 2.657-24.613.133-35.095-6.15.643.027 1.286.048 1.923.048 14.356 0 27.557-5.126 37.172-14.376 5.742-5.52 9.878-12.165 12.333-19.475zM17.57 49c2.454 7.308 6.595 13.95 12.335 19.472 9.617 9.252 22.818 14.377 37.173 14.377.637 0 1.279-.019 1.922-.046-10.48 6.283-22.827 8.807-35.093 6.15C18.093 85.53 5.957 74.289 0 59.653 5.197 54.948 11.172 51.316 17.57 49zm85.642-23.757c9.389-4.205 20.15-5.27 30.777-3.26 3.1 15.704-.905 31.721-12.356 42.94-9.74 9.54-23.018 13.783-36.633 12.982 12.741-10.242 19.955-24.476 19.955-39.817 0-4.396-.601-8.699-1.743-12.845zm-82.204-3.259c10.644-2.019 21.421-.938 30.814 3.305-1.132 4.133-1.724 8.42-1.724 12.8 0 15.34 7.196 29.57 19.902 39.808-13.622.835-26.916-3.408-36.661-12.976-11.426-11.217-15.423-27.234-12.331-42.937zM78.5 0C91.567 8.86 100 22.805 100 38.5c0 15.693-8.433 29.639-21.5 38.5C65.433 68.139 57 54.192 57 38.5 57 22.804 65.433 8.86 78.5 0z" transform="translate(1067 52) translate(0 798) translate(143 39)"/>
                    </g>
                </g>
            </g>
        </g>
    </g>
</svg>
