<svg xmlns="http://www.w3.org/2000/svg" width="22" height="13" viewBox="0 0 22 13">
    <g fill="none" fill-rule="evenodd">
        <g fill="#A66DD4" fill-rule="nonzero">
            <g>
                <g>
                    <g>
                        <g>
                            <g>
                                <path d="M18.96.174C17.465-.11 15.95.04 14.628.632c.161.583.246 1.188.246 1.806 0 2.158-1.016 4.16-2.809 5.6 1.916.113 3.785-.484 5.156-1.826 1.612-1.577 2.176-3.83 1.74-6.038z" transform="translate(-890 -804) translate(156 178) translate(437 539) translate(271 71) translate(26 16) translate(0 3)"/>
                                <g>
                                    <path d="M19.482.031c-.345 1.046-.927 1.997-1.734 2.787-1.352 1.323-3.209 2.057-5.228 2.057-.09 0-.18-.003-.27-.007 1.474.9 3.21 1.26 4.935.88 2.224-.49 3.931-2.098 4.769-4.193C21.223.882 20.382.362 19.482.031zM9.454 4.875c-2.02 0-3.876-.734-5.228-2.057-.807-.79-1.39-1.74-1.735-2.787-.9.332-1.74.851-2.47 1.525.837 2.094 2.544 3.703 4.768 4.192 1.725.38 3.461.02 4.935-.88-.09.004-.18.007-.27.007z" transform="translate(-890 -804) translate(156 178) translate(437 539) translate(271 71) translate(26 16) translate(0 3) translate(0 3.915)"/>
                                </g>
                                <path d="M7.117 2.438c0-.616.084-1.219.243-1.8C6.035.042 4.515-.11 3.013.173c-.436 2.209.128 4.461 1.74 6.039 1.375 1.345 3.25 1.942 5.172 1.825-1.793-1.44-2.808-3.441-2.808-5.599z" transform="translate(-890 -804) translate(156 178) translate(437 539) translate(271 71) translate(26 16) translate(0 3)"/>
                            </g>
                            <path d="M8 5.5c0 2.242 1.177 4.234 3 5.5 1.823-1.266 3-3.258 3-5.5S12.823 1.266 11 0C9.177 1.266 8 3.258 8 5.5z" transform="translate(-890 -804) translate(156 178) translate(437 539) translate(271 71) translate(26 16)"/>
                        </g>
                    </g>
                </g>
            </g>
        </g>
    </g>
</svg>
