<svg xmlns="http://www.w3.org/2000/svg" width="126" height="163" viewBox="0 0 126 163">
    <g fill="none" fill-rule="evenodd">
        <g fill="#4780F5" fill-rule="nonzero">
            <g>
                <g>
                    <g>
                        <path d="M56.942 51.203L21.819 0h12.57l28.796 41.525L91.566 0H104L69.112 50.654l4.72 7.185L113.272 0H126L80.129 67.52l1.288 1.967c18.08 7.08 30.91 24.605 30.91 45.094 0 26.701-21.816 48.419-48.638 48.419-1.662 0-3.269-.077-4.876-.26-24.559-2.44-43.767-23.112-43.767-48.16 0-20.727 13.121-38.432 31.54-45.328L0 0h12.543l44.925 66.575c2.028-.289 4.111-.42 6.22-.42 1.023 0 2.053.028 3.054.105l-.553-.84-9.247-14.217zm44.846 63.378c0-20.805-16.917-37.748-37.785-37.933h-.314c-.95 0-1.898.028-2.846.105-2.821.21-5.56.734-8.169 1.52-15.65 4.725-27.087 19.204-27.087 36.308 0 19.59 15.02 35.775 34.23 37.742 1.264.107 2.556.186 3.874.186 20.995 0 38.097-17.026 38.097-37.928z" transform="translate(-1186 -381) translate(1067 52) translate(0 329) translate(119)"/>
                        <path d="M64 83c17.68 0 32 14.314 32 32 0 17.655-14.32 32-32 32-17.66 0-32-14.344-32-32 0-17.686 14.34-32 32-32z" transform="translate(-1186 -381) translate(1067 52) translate(0 329) translate(119)"/>
                    </g>
                </g>
            </g>
        </g>
    </g>
</svg>
