<svg xmlns="http://www.w3.org/2000/svg" width="15" height="17" viewBox="0 0 15 17">
    <g fill="none" fill-rule="evenodd">
        <g fill="#5FC5FF" fill-rule="nonzero">
            <g>
                <g>
                    <g>
                        <g>
                            <path d="M14.58 9.038c-.557-1.171-.75-1.617-1.307-2.788l-.174-1.703c-.105-1.206-.73-2.27-1.74-2.98C10.108.68 8.787.148 7.43.042 5.516-.136 3.916.255 2.664 1.177c-2.957 2.2-3.34 6.776-1.705 9.402.105.177.244.354.383.532.765.958 1.183 2.235 1.183 3.583v1.951c0 .178.174.355.347.355h6.783c.209 0 .348-.177.348-.355v-2.128c.522.141 1.112.024 1.877-.472.139-.071.837-.604 1.023-1.063.187-.46.335-.782.37-1.527v-.841l1.46-.32c.105-.035.21-.106.244-.212.019-.057-.114-.405-.398-1.044zM6.802 7.953c-.383 0-2.748-1.206-2.748-3.193 0-.78.626-1.419 1.391-1.419.418 0 .835.178 1.079.532.07.071.174.142.278.142.104 0 .209-.035.278-.142.279-.319.661-.532 1.079-.532.765 0 1.39.639 1.39 1.42 0 1.986-2.364 3.192-2.747 3.192z" transform="translate(-780 -802) translate(156 178) translate(437 539) translate(150 71) translate(37 14)"/>
                        </g>
                    </g>
                </g>
            </g>
        </g>
    </g>
</svg>
