<svg xmlns="http://www.w3.org/2000/svg" width="17" height="17" viewBox="0 0 17 17">
    <g fill="none" fill-rule="evenodd">
        <g fill="#3B76EF" fill-rule="nonzero">
            <g>
                <g>
                    <g>
                        <g>
                            <path d="M16.701 6.315L15.69 5.303l.839-.838v-.001c.397-.4.397-1.045 0-1.444L13.98.472c-.19-.192-.451-.3-.722-.299h-.002c-.27 0-.53.107-.72.3l-.84.838L10.686.299c-.4-.399-1.046-.399-1.445 0l-.674.674c-.399.399-.399 1.045 0 1.445l2.43 2.43-6.148 6.148-2.43-2.43c-.4-.398-1.046-.398-1.445 0l-.674.674c-.399.4-.399 1.046 0 1.445l1.011 1.012-.838.838c-.398.4-.398 1.046 0 1.445l2.548 2.547c.399.399 1.045.399 1.445 0l.838-.838 1.011 1.012c.4.399 1.046.399 1.446 0l.673-.674c.399-.4.399-1.046 0-1.445l-2.43-2.43 6.15-6.148 2.43 2.43c.399.398 1.045.398 1.444 0l.674-.674c.399-.4.399-1.046 0-1.445z" transform="translate(-661 -802) translate(156 178) translate(437 539) translate(42 71) translate(26 14)"/>
                        </g>
                    </g>
                </g>
            </g>
        </g>
    </g>
</svg>
