<svg xmlns="http://www.w3.org/2000/svg" width="21" height="17" viewBox="0 0 21 17">
    <g fill="none" fill-rule="evenodd">
        <g fill="#A66DD4" fill-rule="nonzero">
            <g>
                <g>
                    <g>
                        <g>
                            <path d="M18.154 12.732h-.278c-.818-.036-1.518-.592-1.722-1.37-.062-.186-.093-.38-.091-.575V5.337c.002-.583-.448-1.072-1.04-1.129-2.778-.295-4.169-2.36-4.737-3.56-.16-.334-.476-.569-.846-.632-.362-.062-.731.055-.988.312L3.985 4.756l-.873.82c-.067.065-.107.153-.112.246.001.091.036.18.098.249l10.376 10.62.044.044c.254.18.563.272.876.262h5.516c.27.02.536-.066.74-.239.205-.173.331-.42.35-.684v-.86c0-1.38-1.276-2.482-2.846-2.482zm2.091 3.202c0 .43-.418.43-.473.43h-5.317c-.157.007-.314-.024-.457-.09L4.108 6.14c-.1-.1-.127-.47.05-.638.176-.17.523-.081.628.026l9.62 9.89c.051.057.121.092.197.1h5.176c.311-.008.466.13.466.416zM5.659 13c.188 0 .341-.224.341-.5s-.153-.5-.341-.5H2.341c-.188 0-.341.224-.341.5s.153.5.341.5h3.318zM7.665 15H.335C.15 15 0 15.224 0 15.5s.15.5.335.5h7.33c.185 0 .335-.224.335-.5s-.15-.5-.335-.5z" transform="translate(-453 -802) translate(156 178) translate(0 539) translate(285 71) translate(12 14)"/>
                        </g>
                    </g>
                </g>
            </g>
        </g>
    </g>
</svg>
